<svg xmlns="http://www.w3.org/2000/svg" viewBox="0 0 24 24" fill="none" stroke="currentColor" stroke-width="1.5" stroke-linecap="round" stroke-linejoin="round">
  <!-- Two overlapping brain hemispheres = dual-brain -->
  <path d="M9 4.5c-2.5 0-4 1.7-4 4 0 0.7 0.2 1.4 0.5 2-1 0.7-1.5 1.8-1.5 3 0 1.5 0.8 2.7 2 3.4-0.1 0.4-0.2 0.8-0.2 1.2 0 1.8 1.4 3.4 3.2 3.4 1 0 1.9-0.5 2.5-1.2 0.6 0.7 1.5 1.2 2.5 1.2 1.8 0 3.2-1.6 3.2-3.4 0-0.4-0.1-0.8-0.2-1.2 1.2-0.7 2-1.9 2-3.4 0-1.2-0.5-2.3-1.5-3 0.3-0.6 0.5-1.3 0.5-2 0-2.3-1.5-4-4-4-1.2 0-2.3 0.4-3 1.2-0.7-0.8-1.8-1.2-3-1.2z"/>
  <line x1="12" y1="6" x2="12" y2="20"/>
</svg>
